<?xml version="1.0" standalone="no"?>
<!DOCTYPE svg PUBLIC "-//W3C//DTD SVG 20010904//EN"
 "http://www.w3.org/TR/2001/REC-SVG-20010904/DTD/svg10.dtd">
<svg version="1.0" xmlns="http://www.w3.org/2000/svg"
 width="566.000000pt" height="566.000000pt" viewBox="0 0 566.000000 566.000000"
 preserveAspectRatio="xMidYMid meet">
<metadata>
Created by potrace 1.11, written by Peter Selinger 2001-2013
</metadata>
<g transform="translate(0.000000,566.000000) scale(0.100000,-0.100000)"
fill="#000000" stroke="none">
<path d="M0 2830 l0 -2830 2830 0 2830 0 0 2830 0 2830 -2830 0 -2830 0 0
-2830z m818 963 c80 -137 147 -262 287 -542 167 -335 202 -410 430 -919 94
-211 176 -382 181 -380 5 1 79 160 165 353 275 619 507 1098 677 1395 l88 155
167 3 166 2 6 -32 c7 -45 70 -744 95 -1058 41 -522 81 -1152 95 -1495 4 -77 8
-150 11 -162 l4 -23 -188 0 -189 0 -7 198 c-30 848 -97 1929 -120 1926 -27 -4
-388 -756 -667 -1386 l-153 -348 -153 0 c-137 0 -154 2 -160 18 -23 63 -358
807 -493 1092 -157 335 -308 630 -320 630 -20 0 -96 -1237 -115 -1885 -3 -110
-8 -210 -11 -223 -4 -22 -6 -22 -190 -22 l-185 0 6 88 c3 48 15 263 25 477 24
470 51 859 90 1335 30 358 77 834 85 858 3 9 46 12 169 12 l164 0 40 -67z
m3907 -583 c407 -47 639 -281 720 -726 9 -49 19 -171 22 -271 l6 -183 -716 0
-717 0 6 -47 c33 -265 147 -461 314 -541 110 -52 170 -63 356 -69 196 -6 309
8 464 56 52 17 95 29 96 28 2 -4 44 -273 44 -285 0 -7 -16 -20 -36 -28 -65
-27 -252 -72 -350 -85 -122 -15 -422 -6 -519 16 -398 90 -640 345 -724 761
-72 358 -8 733 170 996 122 179 336 320 552 363 134 27 185 29 312 15z"/>
<path d="M4480 2896 c-186 -39 -342 -204 -399 -416 -10 -41 -22 -92 -26 -112
l-6 -38 521 0 520 0 0 44 c0 80 -29 199 -67 276 -100 203 -307 297 -543 246z"/>
</g>
</svg>
